<?xml version="1.0" encoding="UTF-8" standalone="no"?>
<!-- Created with Inkscape (http://www.inkscape.org/) -->

<svg
   width="8.4666672mm"
   height="8.0391769mm"
   viewBox="0 0 8.4666672 8.0391769"
   version="1.1"
   id="svg5"
   xml:space="preserve"
   inkscape:version="1.2.2 (b0a8486541, 2022-12-01)"
   sodipodi:docname="cart-icon2.svg"
   inkscape:export-filename="cart-icon2.svg"
   inkscape:export-xdpi="96"
   inkscape:export-ydpi="96"
   xmlns:inkscape="http://www.inkscape.org/namespaces/inkscape"
   xmlns:sodipodi="http://sodipodi.sourceforge.net/DTD/sodipodi-0.dtd"
   xmlns="http://www.w3.org/2000/svg"
   xmlns:svg="http://www.w3.org/2000/svg"><sodipodi:namedview
     id="namedview7"
     pagecolor="#ffffff"
     bordercolor="#000000"
     borderopacity="0.25"
     inkscape:showpageshadow="2"
     inkscape:pageopacity="0.0"
     inkscape:pagecheckerboard="0"
     inkscape:deskcolor="#d1d1d1"
     inkscape:document-units="mm"
     showgrid="false"
     inkscape:zoom="0.5946522"
     inkscape:cx="422.09547"
     inkscape:cy="480.9534"
     inkscape:window-width="1024"
     inkscape:window-height="655"
     inkscape:window-x="0"
     inkscape:window-y="0"
     inkscape:window-maximized="1"
     inkscape:current-layer="layer1" /><defs
     id="defs2" /><g
     inkscape:label="Capa 1"
     inkscape:groupmode="layer"
     id="layer1"
     transform="translate(-107.44609,-123.23265)"><g
       style="fill:#d40000"
       id="g378"
       transform="matrix(0.26458333,0,0,0.26458333,107.2607,123.06976)"><path
         d="M 12.5,31 C 13.8807,31 15,29.8807 15,28.5 15,27.1193 13.8807,26 12.5,26 11.1193,26 10,27.1193 10,28.5 c 0,1.3807 1.1193,2.5 2.5,2.5 z"
         fill="#ffffff"
         id="path363"
         style="fill:#d40000" /><path
         d="M 25.5,31 C 26.8807,31 28,29.8807 28,28.5 28,27.1193 26.8807,26 25.5,26 24.1193,26 23,27.1193 23,28.5 c 0,1.3807 1.1193,2.5 2.5,2.5 z"
         fill="#ffffff"
         id="path365"
         style="fill:#d40000" /><path
         d="M 32.4498,4.55759 C 32.3525,4.4312 32.2276,4.32878 32.0846,4.25817 31.9416,4.18757 31.7843,4.15066 31.6248,4.15027 H 7.49903 L 7.02905,2.65677 C 6.97742,2.49642 6.88777,2.35092 6.76774,2.23271 6.64771,2.1145 6.50087,2.02708 6.33974,1.97791 L 2.05768,0.661963 C 1.92602,0.621503 1.78767,0.607372 1.65054,0.620379 1.51341,0.633385 1.38019,0.673274 1.25848,0.737767 1.01267,0.868016 0.828669,1.09058 0.746956,1.35649 0.665243,1.6224 0.69251,1.90989 0.82276,2.1557 0.953009,2.40151 1.17557,2.58551 1.44148,2.66722 L 5.1909,3.81606 9.97427,18.9286 8.27189,20.3281 8.13611,20.4639 c -0.421,0.4875 -0.65952,1.1061 -0.67476,1.75 -0.01524,0.644 0.19375,1.2732 0.59121,1.78 0.28466,0.3462 0.64639,0.621 1.05625,0.8023 0.40986,0.1814 0.85647,0.2643 1.30409,0.2422 H 27.844 c 0.277,0 0.5427,-0.1101 0.7385,-0.3059 0.1959,-0.1959 0.3059,-0.4616 0.3059,-0.7386 0,-0.2769 -0.11,-0.5426 -0.3059,-0.7385 C 28.3867,23.0596 28.121,22.9495 27.844,22.9495 H 10.2458 C 10.1255,22.9454 10.0084,22.9104 9.9056,22.8478 9.80284,22.7852 9.71796,22.6971 9.65916,22.5921 9.60037,22.4871 9.56964,22.3687 9.56995,22.2484 9.57026,22.1281 9.6016,22.0098 9.66094,21.9051 L 12.178,19.8163 h 16.1151 c 0.2386,0.007 0.4724,-0.068 0.6624,-0.2124 0.19,-0.1444 0.3248,-0.3496 0.382,-0.5813 L 32.6796,5.44533 C 32.7114,5.28963 32.7072,5.12874 32.6674,4.9749 32.6275,4.82106 32.5532,4.67833 32.4498,4.55759 Z"
         fill="#ffffff"
         id="path367"
         style="fill:#d40000" /></g><g
       style="fill:#1a1a1a"
       id="g475"
       transform="matrix(0.26458333,0,0,0.26458333,107.2607,123.06976)"><path
         d="M 12.5,31 C 13.8807,31 15,29.8807 15,28.5 15,27.1193 13.8807,26 12.5,26 11.1193,26 10,27.1193 10,28.5 c 0,1.3807 1.1193,2.5 2.5,2.5 z"
         fill="#ffffff"
         id="path460"
         style="fill:#1a1a1a" /><path
         d="M 25.5,31 C 26.8807,31 28,29.8807 28,28.5 28,27.1193 26.8807,26 25.5,26 24.1193,26 23,27.1193 23,28.5 c 0,1.3807 1.1193,2.5 2.5,2.5 z"
         fill="#ffffff"
         id="path462"
         style="fill:#1a1a1a" /><path
         d="M 32.4498,4.55759 C 32.3525,4.4312 32.2276,4.32878 32.0846,4.25817 31.9416,4.18757 31.7843,4.15066 31.6248,4.15027 H 7.49903 L 7.02905,2.65677 C 6.97742,2.49642 6.88777,2.35092 6.76774,2.23271 6.64771,2.1145 6.50087,2.02708 6.33974,1.97791 L 2.05768,0.661963 C 1.92602,0.621503 1.78767,0.607372 1.65054,0.620379 1.51341,0.633385 1.38019,0.673274 1.25848,0.737767 1.01267,0.868016 0.828669,1.09058 0.746956,1.35649 0.665243,1.6224 0.69251,1.90989 0.82276,2.1557 0.953009,2.40151 1.17557,2.58551 1.44148,2.66722 L 5.1909,3.81606 9.97427,18.9286 8.27189,20.3281 8.13611,20.4639 c -0.421,0.4875 -0.65952,1.1061 -0.67476,1.75 -0.01524,0.644 0.19375,1.2732 0.59121,1.78 0.28466,0.3462 0.64639,0.621 1.05625,0.8023 0.40986,0.1814 0.85647,0.2643 1.30409,0.2422 H 27.844 c 0.277,0 0.5427,-0.1101 0.7385,-0.3059 0.1959,-0.1959 0.3059,-0.4616 0.3059,-0.7386 0,-0.2769 -0.11,-0.5426 -0.3059,-0.7385 C 28.3867,23.0596 28.121,22.9495 27.844,22.9495 H 10.2458 C 10.1255,22.9454 10.0084,22.9104 9.9056,22.8478 9.80284,22.7852 9.71796,22.6971 9.65916,22.5921 9.60037,22.4871 9.56964,22.3687 9.56995,22.2484 9.57026,22.1281 9.6016,22.0098 9.66094,21.9051 L 12.178,19.8163 h 16.1151 c 0.2386,0.007 0.4724,-0.068 0.6624,-0.2124 0.19,-0.1444 0.3248,-0.3496 0.382,-0.5813 L 32.6796,5.44533 C 32.7114,5.28963 32.7072,5.12874 32.6674,4.9749 32.6275,4.82106 32.5532,4.67833 32.4498,4.55759 Z"
         fill="#ffffff"
         id="path464"
         style="fill:#1a1a1a" /></g></g></svg>
